<svg width="24" height="24" viewBox="0 0 24 24" fill="none" xmlns="http://www.w3.org/2000/svg">
<path d="M22.0575 6.9449C21.938 6.50093 21.7039 6.09614 21.3788 5.77103C21.0537 5.44592 20.6489 5.2119 20.205 5.0924C18.57 4.6499 12 4.6499 12 4.6499C12 4.6499 5.42995 4.6499 3.79495 5.0924C3.35098 5.2119 2.94619 5.44592 2.62108 5.77103C2.29597 6.09614 2.06196 6.50093 1.94245 6.9449C1.63716 8.61235 1.48901 10.3048 1.49995 11.9999C1.48901 13.695 1.63716 15.3875 1.94245 17.0549C2.06196 17.4989 2.29597 17.9037 2.62108 18.2288C2.94619 18.5539 3.35098 18.7879 3.79495 18.9074C5.42995 19.3499 12 19.3499 12 19.3499C12 19.3499 18.57 19.3499 20.205 18.9074C20.6489 18.7879 21.0537 18.5539 21.3788 18.2288C21.7039 17.9037 21.938 17.4989 22.0575 17.0549C22.3627 15.3875 22.5109 13.695 22.5 11.9999C22.5109 10.3048 22.3627 8.61235 22.0575 6.9449ZM9.89995 15.1499V8.8499L15.3525 11.9999L9.89995 15.1499Z" fill="#333333"/>
</svg>
