<svg width="56" height="56" viewBox="0 0 56 56" fill="none" xmlns="http://www.w3.org/2000/svg">
<path d="M40.7348 -1.19861e-05C40.7348 13.1925 40.7348 18.0217 40.7348 35.7873C25.9937 35.7873 40.2134 35.7873 25.4762 35.7873C25.4762 27.4461 25.4762 27.4357 25.4762 25.7245H20.6132C20.6132 41.0859 20.6132 46.4651 20.6132 56H25.4762C25.4762 50.1683 25.4762 43.7073 25.4762 40.7335C40.2186 40.7335 25.9989 40.7335 40.7348 40.7335C40.7348 44.5147 40.7348 46.5132 40.7348 50.7638H45.4483C45.4483 33.8577 45.4483 16.9373 45.4483 -0.00131226H40.7348V-1.19861e-05Z" fill="white"/>
<path d="M25.4762 0H20.6132C20.6132 2.55243 20.6132 4.96833 20.6132 10.4672H25.4762C25.4762 5.53655 25.4762 2.83719 25.4762 0Z" fill="white"/>
<path d="M30.8267 55.9999H35.3854C35.3854 52.2942 35.3854 50.2905 35.3854 46.0828H30.8267C30.8267 52.0926 30.8267 52.4879 30.8267 55.9999Z" fill="white"/>
<path d="M15.264 56C15.264 42.1352 15.264 37.4139 15.264 20.3752C25.6765 20.3752 22.4857 20.3752 30.8269 20.3752C30.8269 28.7177 30.8269 28.7229 30.8269 30.438H35.3856C35.3856 18.967 35.3856 25.8181 35.3856 0H30.8269C30.8269 5.40652 30.8269 10.4061 30.8269 15.8165C22.487 15.8165 25.6765 15.8165 15.264 15.8165C15.264 1.14294 15.264 4.00873 15.264 0H10.5492C10.5492 11.8585 10.5492 40.4241 10.5492 56H15.264Z" fill="white"/>
<path d="M50.7965 0C50.7965 21.8731 50.7965 29.6995 50.7965 56H56.0002V0H50.7965Z" fill="white"/>
<path d="M5.20108 0H0V56H5.20108C5.20108 41.4877 5.20108 14.511 5.20108 0Z" fill="white"/>
</svg>
